<?xml version="1.0" encoding="utf-8"?><svg xmlns="http://www.w3.org/2000/svg" width="900" height="800"><rect x="463.1324453125" y="406.08371240234" width="4" height="4" style="fill: #C0C0C0;" /><rect x="471.7772734375" y="353.15371484375" width="4" height="4" style="fill: #C0C0C0;" /><rect x="477.12470507812" y="272.680484375" width="4" height="4" style="fill: #C0C0C0;" /><rect x="477.45092773438" y="276.350734375" width="4" height="4" style="fill: #C0C0C0;" /><rect x="476.94604101562" y="253.878796875" width="4" height="4" style="fill: #C0C0C0;" /><rect x="451.43506640625" y="357.5630703125" width="4" height="4" style="fill: #C0C0C0;" /><rect x="447.7103125" y="355.90866796875" width="4" height="4" style="fill: #C0C0C0;" /><rect x="447.58683203125" y="352.338796875" width="4" height="4" style="fill: #C0C0C0;" /><rect x="452.14790625" y="382.39752148437" width="4" height="4" style="fill: #C0C0C0;" /><rect x="451.22304296875" y="398.17414074707" width="4" height="4" style="fill: #CC6600;" /><rect x="450.03848046875" y="399.35478118896" width="4" height="4" style="fill: #CC6600;" /><rect x="453.705578125" y="395.3422734375" width="4" height="4" style="fill: #CC6600;" /><rect x="444.7071484375" y="231.878765625" width="4" height="4" style="fill: #C0C0C0;" /><rect x="436.0804140625" y="309.838234375" width="4" height="4" style="fill: #C0C0C0;" /><rect x="416.2818984375" y="185.22621875" width="4" height="4" style="fill: #C0C0C0;" /><rect x="417.021109375" y="188.01603125" width="4" height="4" style="fill: #C0C0C0;" /><rect x="417.5889453125" y="190.7873125" width="4" height="4" style="fill: #C0C0C0;" /><rect x="407.5633984375" y="324.1910859375" width="4" height="4" style="fill: #C0C0C0;" /><rect x="411.0609765625" y="318.862484375" width="4" height="4" style="fill: #C0C0C0;" /><rect x="409.1741328125" y="313.6674765625" width="4" height="4" style="fill: #C0C0C0;" /><rect x="408.74571875" y="273.524546875" width="4" height="4" style="fill: #C0C0C0;" /><rect x="408.502046875" y="277.773359375" width="4" height="4" style="fill: #C0C0C0;" /><rect x="405.4373984375" y="279.506203125" width="4" height="4" style="fill: #C0C0C0;" /><rect x="406.8880078125" y="274.7026875" width="4" height="4" style="fill: #C0C0C0;" /><rect x="491.43298925781" y="341.749109375" width="4" height="4" style="fill: #C0C0C0;" /><rect x="489.96097851563" y="337.62087109375" width="4" height="4" style="fill: #C0C0C0;" /><rect x="482.40672070313" y="275.437734375" width="4" height="4" style="fill: #C0C0C0;" /><rect x="480.78879296875" y="278.741296875" width="4" height="4" style="fill: #C0C0C0;" /><rect x="495.84080566406" y="265.20153125" width="4" height="4" style="fill: #C0C0C0;" /><rect x="488.34102832031" y="268.54775" width="4" height="4" style="fill: #C0C0C0;" /><rect x="384.004203125" y="198.971125" width="4" height="4" style="fill: #C0C0C0;" /><rect x="362.492125" y="305.204765625" width="4" height="4" style="fill: #C0C0C0;" /><rect x="370.8968515625" y="387.887765625" width="4" height="4" style="fill: #C0C0C0;" /><rect x="372.5732890625" y="255.167046875" width="4" height="4" style="fill: #C0C0C0;" /><rect x="348.170375" y="378.867203125" width="4" height="4" style="fill: #C0C0C0;" /><rect x="350.575625" y="377.0084140625" width="4" height="4" style="fill: #C0C0C0;" /><rect x="349.38946875" y="323.69375" width="4" height="4" style="fill: #C0C0C0;" /><rect x="351.372875" y="320.822203125" width="4" height="4" style="fill: #C0C0C0;" /><rect x="347.19375" y="318.039890625" width="4" height="4" style="fill: #C0C0C0;" /><rect x="350.547" y="317.182953125" width="4" height="4" style="fill: #C0C0C0;" /><rect x="345.940375" y="381.0400703125" width="4" height="4" style="fill: #C0C0C0;" /><rect x="319.55828125" y="235.577625" width="4" height="4" style="fill: #C0C0C0;" /><rect x="314.4236875" y="232.48796875" width="4" height="4" style="fill: #C0C0C0;" /><rect x="316.1850625" y="229.37609375" width="4" height="4" style="fill: #C0C0C0;" /><rect x="319.41121875" y="231.86825" width="4" height="4" style="fill: #C0C0C0;" /><rect x="520.99654492188" y="405.87178125" width="4" height="4" style="fill: #C0C0C0;" /><rect x="522.53263085938" y="258.43028125" width="4" height="4" style="fill: #C0C0C0;" /><rect x="549.845578125" y="282.651703125" width="4" height="4" style="fill: #808B96;" /><rect x="543.353046875" y="286.075640625" width="4" height="4" style="fill: #808B96;" /><rect x="558.6814375" y="295.58709375" width="4" height="4" style="fill: #660066;" /><rect x="552.266171875" y="265.42653125" width="4" height="4" style="fill: #808B96;" /><rect x="541.5042578125" y="274.055265625" width="4" height="4" style="fill: #808B96;" /><rect x="577.23978125" y="444.038328125" width="4" height="4" style="fill: #C0C0C0;" /><rect x="564.33715625" y="290.7705" width="4" height="4" style="fill: #660066;" /><rect x="565.679546875" y="292.973578125" width="4" height="4" style="fill: #660066;" /><rect x="560.9819296875" y="296.248265625" width="4" height="4" style="fill: #660066;" /><rect x="564.7358359375" y="297.344765625" width="4" height="4" style="fill: #660066;" /><rect x="585.277890625" y="457.8240859375" width="4" height="4" style="fill: #808B96;" /><rect x="591.13396875" y="462.29998046875" width="4" height="4" style="fill: #808B96;" /><rect x="587.832109375" y="460.67072265625" width="4" height="4" style="fill: #808B96;" /><rect x="587.7380625" y="460.5833125" width="4" height="4" style="fill: #808B96;" /><rect x="591.859234375" y="464.2933984375" width="4" height="4" style="fill: #808B96;" /><rect x="597.47684375" y="466.2754140625" width="4" height="4" style="fill: #808B96;" /><rect x="583.3419453125" y="466.691609375" width="4" height="4" style="fill: #808B96;" /><rect x="580.6294140625" y="366.5085859375" width="4" height="4" style="fill: #C0C0C0;" /><rect x="584.723421875" y="382.9086875" width="4" height="4" style="fill: #C0C0C0;" /><rect x="586.0897578125" y="387.218875" width="4" height="4" style="fill: #C0C0C0;" /><rect x="591.425921875" y="254.357328125" width="4" height="4" style="fill: #C0C0C0;" /><rect x="513.9656015625" y="404.7108671875" width="4" height="4" style="fill: #C0C0C0;" /><rect x="518.56196679688" y="402.3811640625" width="4" height="4" style="fill: #C0C0C0;" /><rect x="518.01154296875" y="403.1095234375" width="4" height="4" style="fill: #C0C0C0;" /><rect x="518.39424609375" y="399.5845" width="4" height="4" style="fill: #C0C0C0;" /><rect x="518.24322851562" y="396.774328125" width="4" height="4" style="fill: #C0C0C0;" /><rect x="519.65238476563" y="224.47671875" width="4" height="4" style="fill: #C0C0C0;" /><rect x="619.34709375" y="390.80165234375" width="4" height="4" style="fill: #C0C0C0;" /><rect x="616.3358125" y="385.5704453125" width="4" height="4" style="fill: #C0C0C0;" /><rect x="619.463390625" y="384.3509140625" width="4" height="4" style="fill: #C0C0C0;" /><rect x="609.7519375" y="264.3225" width="4" height="4" style="fill: #C0C0C0;" /><rect x="612.5796015625" y="265.42375" width="4" height="4" style="fill: #C0C0C0;" /><rect x="615.371828125" y="266.66025" width="4" height="4" style="fill: #C0C0C0;" /><rect x="639.31040625" y="366.43677734375" width="4" height="4" style="fill: #C0C0C0;" /><rect x="627.4757265625" y="357.23717578125" width="4" height="4" style="fill: #C0C0C0;" /><rect x="620.903828125" y="387.6120859375" width="4" height="4" style="fill: #C0C0C0;" /><rect x="646.801640625" y="421.61442578125" width="4" height="4" style="fill: #C0C0C0;" /><rect x="640.078859375" y="422.80857226562" width="4" height="4" style="fill: #C0C0C0;" /><rect x="646.073171875" y="423.42302148438" width="4" height="4" style="fill: #C0C0C0;" /><rect x="646.0559375" y="407.12995556641" width="4" height="4" style="fill: #C0C0C0;" /><rect x="653.65278125" y="410.9815" width="4" height="4" style="fill: #C0C0C0;" /><rect x="652.071046875" y="415.00281835937" width="4" height="4" style="fill: #C0C0C0;" /><rect x="640.7569375" y="412.33915234375" width="4" height="4" style="fill: #C0C0C0;" /><rect x="646.84428125" y="418.88868164063" width="4" height="4" style="fill: #C0C0C0;" /><rect x="674.65909375" y="387.50534375" width="4" height="4" style="fill: #C0C0C0;" /><rect x="675.51346875" y="384.70414453125" width="4" height="4" style="fill: #C0C0C0;" /><rect x="676.32265625" y="381.8121171875" width="4" height="4" style="fill: #C0C0C0;" /><rect x="684.415875" y="422.76490625" width="4" height="4" style="fill: #C0C0C0;" /><rect x="686.2585" y="419.118515625" width="4" height="4" style="fill: #C0C0C0;" /><rect x="689.8688125" y="419.2081875" width="4" height="4" style="fill: #C0C0C0;" /><circle cx="612.9824296875" cy="140.49378125" r="2.5" style="fill: #0000FF;" /><circle cx="622.2340078125" cy="137.64796875" r="2.5" style="fill: #0000FF;" /><circle cx="603.2814375" cy="144.04396875" r="2.5" style="fill: #0000FF;" /><circle cx="597.358140625" cy="187.559875" r="2.5" style="fill: #0000FF;" /><circle cx="591.345078125" cy="181.80471875" r="2.5" style="fill: #0000FF;" /><circle cx="546.168359375" cy="73.16403125" r="2.5" style="fill: #0000FF;" /><circle cx="554.56246875" cy="74.0725625" r="2.5" style="fill: #0000FF;" /><circle cx="698.6488125" cy="127.729625" r="2.5" style="fill: #6600CC;" /><circle cx="691.386515625" cy="125.0825" r="2.5" style="fill: #6600CC;" /><circle cx="646.036171875" cy="155.696640625" r="2.5" style="fill: #0000FF;" /><circle cx="585.756828125" cy="148.079875" r="2.5" style="fill: #0000FF;" /><circle cx="573.3845390625" cy="129.92365625" r="2.5" style="fill: #0000FF;" /><circle cx="618.9336171875" cy="253.02246875" r="2.5" style="fill: #00CCFF;" /><circle cx="568.89275" cy="236.68153125" r="2.5" style="fill: #00CCFF;" /><circle cx="560.0474296875" cy="221.47746875" r="2.5" style="fill: #00CCFF;" /><circle cx="536.28298046875" cy="183.198171875" r="2.5" style="fill: #00CCFF;" /><rect x="578.622734375" y="156.7950625" width="4" height="4" style="fill: #FF0000;" /><circle cx="563.02169140625" cy="76.1171875" r="2.5" style="fill: #0066CC;" /><circle cx="689.39575" cy="192.371171875" r="2.5" style="fill: #0066CC;" /><circle cx="623.7448828125" cy="180.53553125" r="2.5" style="fill: #0066CC;" /><circle cx="598.26884375" cy="135.434125" r="2.5" style="fill: #0066CC;" /><circle cx="696.27425" cy="79.2763125" r="2.5" style="fill: #0066CC;" /><circle cx="302.99209375" cy="691.13253125" r="2.5" style="fill: #FBC02D;" /><circle cx="75.4138125" cy="647.552078125" r="2.5" style="fill: #FBC02D;" /><circle cx="577.46146875" cy="638.6170625" r="2.5" style="fill: #FBC02D;" /><circle cx="189.5393125" cy="597.81265625" r="2.5" style="fill: #FBC02D;" /><circle cx="441.6204140625" cy="609.86003125" r="2.5" style="fill: #FBC02D;" /><circle cx="325.56740625" cy="506.2170703125" r="2.5" style="fill: #CCCC00;" /><circle cx="49.27103125" cy="637.8445625" r="2.5" style="fill: #FFEB3B;" /><circle cx="85.09940625" cy="711.0616875" r="2.5" style="fill: #CCCC33;" /><circle cx="307.523921875" cy="691.23178125" r="2.5" style="fill: #FBC02D;" /><circle cx="468.21528125" cy="505.33340625" r="2.5" style="fill: #CCCC00;" /><circle cx="545.7902421875" cy="592.536703125" r="2.5" style="fill: #C0C0C0;" /><circle cx="599.8596875" cy="588.416703125" r="2.5" style="fill: #FF9966;" /><circle cx="296.983359375" cy="698.80696875" r="2.5" style="fill: #FF9966;" /><rect x="580.225765625" y="597.012078125" width="4" height="4" style="fill: #FBC02D;" /><circle cx="561.63737109375" cy="586.887390625" r="2.5" style="fill: #808080;" /><circle cx="391.0776640625" cy="687.54865625" r="2.5" style="fill: #CCCC33;" /><circle cx="399.937640625" cy="722.984125" r="2.5" style="fill: #CCCC33;" /><circle cx="431.9794765625" cy="714.34465625" r="2.5" style="fill: #CCCC33;" /><rect x="406.1148671875" y="715.27421875" width="4" height="4" style="fill: #CC6600;" /><circle cx="149.18834375" cy="586.32003125" r="2.5" style="fill: #FFEB3B;" /><circle cx="148.1215" cy="674.0965625" r="2.5" style="fill: #FFEB3B;" /><circle cx="199.9965625" cy="604.81790625" r="2.5" style="fill: #FFEB3B;" /><circle cx="275.83421875" cy="668.91228125" r="2.5" style="fill: #FFEB3B;" /><circle cx="293.40146875" cy="612.816078125" r="2.5" style="fill: #FFEB3B;" /><circle cx="357.79109375" cy="624.0920625" r="2.5" style="fill: #FFEB3B;" /><circle cx="395.1668203125" cy="609.0824375" r="2.5" style="fill: #FFEB3B;" /><circle cx="240.38709375" cy="551.19159375" r="2.5" style="fill: #FFEB3B;" /><circle cx="205.312125" cy="736.69890625" r="2.5" style="fill: #CCCC33;" /><circle cx="229.3228125" cy="709.97609375" r="2.5" style="fill: #CCCC33;" /><circle cx="251.588921875" cy="708.4881875" r="2.5" style="fill: #CCCC33;" /><circle cx="276.4496875" cy="736.3654375" r="2.5" style="fill: #CCCC33;" /><circle cx="307.557109375" cy="743.3421875" r="2.5" style="fill: #CCCC33;" /><circle cx="239.077140625" cy="734.85415625" r="2.5" style="fill: #CCCC33;" /><rect x="299.26146875" y="750.56059375" width="4" height="4" style="fill: #CC6600;" /><circle cx="293.92428125" cy="746.9239375" r="2.5" style="fill: #800080;" /><circle cx="303.8076875" cy="757.6285625" r="2.5" style="fill: #800080;" /><circle cx="412.122046875" cy="713.51121875" r="2.5" style="fill: #800080;" /><circle cx="484.55621679687" cy="586.870359375" r="2.5" style="fill: #FFEB3B;" /><rect x="296.379328125" y="753.04434375" width="4" height="4" style="fill: #CC6600;" /><rect x="294.81984375" y="757.8405625" width="4" height="4" style="fill: #CC6600;" /><rect x="298.1383125" y="754.82028125" width="4" height="4" style="fill: #CC6600;" /><rect x="406.9117421875" y="719.03778125" width="4" height="4" style="fill: #CC6600;" /><rect x="404.517390625" y="720.113" width="4" height="4" style="fill: #CC6600;" /><rect x="406.5534609375" y="722.1318125" width="4" height="4" style="fill: #CC6600;" /><rect x="404.5881640625" y="724.30675" width="4" height="4" style="fill: #CC6600;" /><rect x="406.5290234375" y="726.52246875" width="4" height="4" style="fill: #CC6600;" /><rect x="489.51088085937" y="588.879609375" width="4" height="4" style="fill: #CC6600;" /><rect x="487.90040527344" y="593.041625" width="4" height="4" style="fill: #CC6600;" /><rect x="489.78291113281" y="596.38028125" width="4" height="4" style="fill: #CC6600;" /><rect x="492.08120898437" y="598.2416875" width="4" height="4" style="fill: #CC6600;" /><rect x="144.043125" y="526.8469609375" width="4" height="4" style="fill: #C0C0C0;" /><rect x="142.28175" y="523.6289609375" width="4" height="4" style="fill: #C0C0C0;" /><rect x="144.55615625" y="522.312328125" width="4" height="4" style="fill: #C0C0C0;" /><rect x="461.6239609375" y="663.78853125" width="4" height="4" style="fill: #C0C0C0;" /><rect x="458.43397265625" y="663.75365625" width="4" height="4" style="fill: #C0C0C0;" /><rect x="458.73988671875" y="660.9931875" width="4" height="4" style="fill: #C0C0C0;" /><rect x="239.636546875" y="656.65009375" width="4" height="4" style="fill: #C0C0C0;" /><rect x="235.9786875" y="655.644234375" width="4" height="4" style="fill: #C0C0C0;" /><rect x="236.99596875" y="652.883734375" width="4" height="4" style="fill: #C0C0C0;" /><rect x="124.6264375" y="736.32459375" width="4" height="4" style="fill: #C0C0C0;" /><rect x="123.10028125" y="738.113875" width="4" height="4" style="fill: #C0C0C0;" /><rect x="120.7861875" y="736.00475" width="4" height="4" style="fill: #C0C0C0;" /><rect x="111.26790625" y="645.181046875" width="4" height="4" style="fill: #C0C0C0;" /><rect x="108.044875" y="645.27971875" width="4" height="4" style="fill: #C0C0C0;" /><rect x="108.62190625" y="642.20928125" width="4" height="4" style="fill: #C0C0C0;" /><rect x="47.80809375" y="587.4748125" width="4" height="4" style="fill: #C0C0C0;" /><rect x="46.73865625" y="590.271203125" width="4" height="4" style="fill: #C0C0C0;" /><rect x="44.3135625" y="590.4749375" width="4" height="4" style="fill: #C0C0C0;" /><rect x="628.1041484375" y="566.57021875" width="4" height="4" style="fill: #C0C0C0;" /><rect x="626.791203125" y="569.4235" width="4" height="4" style="fill: #C0C0C0;" /><rect x="622.632109375" y="571.277828125" width="4" height="4" style="fill: #C0C0C0;" /><rect x="625.899640625" y="574.37640625" width="4" height="4" style="fill: #C0C0C0;" /><rect x="236.46325" y="596.088765625" width="4" height="4" style="fill: #C0C0C0;" /><rect x="237.26659375" y="592.87203125" width="4" height="4" style="fill: #C0C0C0;" /><rect x="239.186734375" y="590.867015625" width="4" height="4" style="fill: #C0C0C0;" /><rect x="235.2290625" y="590.638203125" width="4" height="4" style="fill: #C0C0C0;" /><rect x="185.85834375" y="692.22378125" width="4" height="4" style="fill: #C0C0C0;" /><rect x="186.292" y="688.85315625" width="4" height="4" style="fill: #C0C0C0;" /><rect x="187.378375" y="687.3371875" width="4" height="4" style="fill: #C0C0C0;" /><rect x="183.468625" y="687.18928125" width="4" height="4" style="fill: #C0C0C0;" /><rect x="45.67896875" y="673.82275" width="4" height="4" style="fill: #C0C0C0;" /><rect x="45.47296875" y="670.60765625" width="4" height="4" style="fill: #C0C0C0;" /><rect x="46.53290625" y="668.865625" width="4" height="4" style="fill: #C0C0C0;" /><rect x="43.00121875" y="669.27796875" width="4" height="4" style="fill: #C0C0C0;" /><rect x="41.05478125" y="549.46803125" width="4" height="4" style="fill: #C0C0C0;" /><rect x="38.30809375" y="548.060078125" width="4" height="4" style="fill: #C0C0C0;" /><rect x="37.363625" y="551.45165625" width="4" height="4" style="fill: #C0C0C0;" /><rect x="34.13425" y="551.67884375" width="4" height="4" style="fill: #C0C0C0;" /><rect x="36.12959375" y="553.87546875" width="4" height="4" style="fill: #C0C0C0;" /><rect x="75.49003125" y="626.724578125" width="4" height="4" style="fill: #C0C0C0;" /><rect x="72.3565" y="628.369015625" width="4" height="4" style="fill: #C0C0C0;" /><rect x="73.56878125" y="630.703875" width="4" height="4" style="fill: #C0C0C0;" /><rect x="71.72721875" y="632.858015625" width="4" height="4" style="fill: #C0C0C0;" /><rect x="75.8096875" y="632.991546875" width="4" height="4" style="fill: #C0C0C0;" /><rect x="34.57340625" y="648.372609375" width="4" height="4" style="fill: #C0C0C0;" /><rect x="30.8539375" y="647.973703125" width="4" height="4" style="fill: #C0C0C0;" /><rect x="28.1689375" y="651.8660625" width="4" height="4" style="fill: #C0C0C0;" /><rect x="31.4154375" y="653.676171875" width="4" height="4" style="fill: #C0C0C0;" /><rect x="30.41825" y="650.303671875" width="4" height="4" style="fill: #C0C0C0;" /><rect x="540.539046875" y="547.713421875" width="4" height="4" style="fill: #C0C0C0;" /><rect x="543.02274609375" y="545.06225" width="4" height="4" style="fill: #C0C0C0;" /><rect x="541.4670234375" y="544.19171875" width="4" height="4" style="fill: #C0C0C0;" /><rect x="540.91165625" y="540.846296875" width="4" height="4" style="fill: #C0C0C0;" /><rect x="538.57360546875" y="541.94234375" width="4" height="4" style="fill: #C0C0C0;" /><rect x="255.376734375" y="571.91196875" width="4" height="4" style="fill: #C0C0C0;" /><rect x="252.797015625" y="569.361890625" width="4" height="4" style="fill: #C0C0C0;" /><rect x="251.84215625" y="570.945625" width="4" height="4" style="fill: #C0C0C0;" /><rect x="248.187359375" y="571.11728125" width="4" height="4" style="fill: #C0C0C0;" /><rect x="249.715875" y="574.4174375" width="4" height="4" style="fill: #C0C0C0;" /><rect x="477.9427421875" y="619.8789375" width="4" height="4" style="fill: #C0C0C0;" /><rect x="477.62700390625" y="616.80815625" width="4" height="4" style="fill: #C0C0C0;" /><rect x="473.57470898438" y="618.640421875" width="4" height="4" style="fill: #C0C0C0;" /><rect x="470.7251328125" y="619.874078125" width="4" height="4" style="fill: #C0C0C0;" /><rect x="471.69759179688" y="621.73496875" width="4" height="4" style="fill: #C0C0C0;" /><rect x="474.23319335938" y="619.441828125" width="4" height="4" style="fill: #C0C0C0;" /><rect x="84.8711875" y="517.9900625" width="4" height="4" style="fill: #C0C0C0;" /><rect x="87.2290625" y="516.0108203125" width="4" height="4" style="fill: #C0C0C0;" /><rect x="84.7365" y="513.3521875" width="4" height="4" style="fill: #C0C0C0;" /><rect x="25.60459375" y="734.02928125" width="4" height="4" style="fill: #C0C0C0;" /><rect x="23.04884375" y="732.47034375" width="4" height="4" style="fill: #C0C0C0;" /><rect x="21.2416875" y="735.608" width="4" height="4" style="fill: #C0C0C0;" /><rect x="548.44936328125" y="546.136640625" width="4" height="4" style="fill: #C0C0C0;" /><rect x="545.570515625" y="547.235296875" width="4" height="4" style="fill: #C0C0C0;" /><rect x="546.83631640625" y="550.91115625" width="4" height="4" style="fill: #C0C0C0;" /><rect x="273.9946875" y="624.815109375" width="4" height="4" style="fill: #C0C0C0;" /><rect x="271.063203125" y="624.74775" width="4" height="4" style="fill: #C0C0C0;" /><rect x="270.697359375" y="628.214203125" width="4" height="4" style="fill: #C0C0C0;" /><rect x="80.29765625" y="711.88309375" width="4" height="4" style="fill: #808080;" /><rect x="72.324875" y="711.97103125" width="4" height="4" style="fill: #800000;" /><rect x="64.48221875" y="711.801625" width="4" height="4" style="fill: #800000;" /><rect x="62.89890625" y="710.3336875" width="4" height="4" style="fill: #800000;" /><rect x="60.8941875" y="710.41025" width="4" height="4" style="fill: #800000;" /><rect x="60.79503125" y="713.48684375" width="4" height="4" style="fill: #800000;" /><rect x="63.7546875" y="713.69646875" width="4" height="4" style="fill: #800000;" /><rect x="60.09428125" y="708.24025" width="4" height="4" style="fill: #800000;" /><rect x="619.6138359375" y="142.445875" width="4" height="4" style="fill: #808B96;" /><rect x="615.54078125" y="131.90690625" width="4" height="4" style="fill: #808B96;" /><rect x="625.7853828125" y="143.198671875" width="4" height="4" style="fill: #808B96;" /><rect x="622.5911953125" y="136.7775" width="4" height="4" style="fill: #808B96;" /><rect x="615.4410703125" y="137.04684375" width="4" height="4" style="fill: #808B96;" /><rect x="609.2367578125" y="138.988671875" width="4" height="4" style="fill: #808B96;" /><rect x="607.9608984375" y="141.753125" width="4" height="4" style="fill: #808B96;" /><rect x="602.255734375" y="138.471078125" width="4" height="4" style="fill: #808B96;" /><rect x="607.4454921875" y="135.39678125" width="4" height="4" style="fill: #808B96;" /><rect x="612.78853125" y="138.295765625" width="4" height="4" style="fill: #808B96;" /><rect x="613.8134609375" y="142.56753125" width="4" height="4" style="fill: #808B96;" /><rect x="625.0446953125" y="199.495515625" width="4" height="4" style="fill: #E0E0E0;" /><rect x="621.1116484375" y="201.011640625" width="4" height="4" style="fill: #E0E0E0;" /><rect x="626.483015625" y="202.226" width="4" height="4" style="fill: #E0E0E0;" /><rect x="615.7756875" y="200.46203125" width="4" height="4" style="fill: #E0E0E0;" /><rect x="611.5092734375" y="199.952625" width="4" height="4" style="fill: #E0E0E0;" /><rect x="652.964796875" y="214.106953125" width="4" height="4" style="fill: #E0E0E0;" /><rect x="652.457765625" y="208.816421875" width="4" height="4" style="fill: #E0E0E0;" /><rect x="651.803265625" y="199.900515625" width="4" height="4" style="fill: #E0E0E0;" /><rect x="573.9480234375" y="128.18253125" width="4" height="4" style="fill: #E0E0E0;" /><rect x="571.4588984375" y="132.875625" width="4" height="4" style="fill: #E0E0E0;" /><rect x="566.3823359375" y="140.037265625" width="4" height="4" style="fill: #E0E0E0;" /><rect x="594.5480546875" y="79.50609375" width="4" height="4" style="fill: #E0E0E0;" /><rect x="596.5711875" y="74.93446875" width="4" height="4" style="fill: #E0E0E0;" /><rect x="603.238609375" y="70.7289375" width="4" height="4" style="fill: #E0E0E0;" /><rect x="679.211578125" y="67.10546875" width="4" height="4" style="fill: #E0E0E0;" /><rect x="677.54909375" y="62.562125" width="4" height="4" style="fill: #E0E0E0;" /><rect x="669.877875" y="63.43321875" width="4" height="4" style="fill: #E0E0E0;" /><rect x="670.552875" y="137.4363125" width="4" height="4" style="fill: #E0E0E0;" /><rect x="672.60346875" y="132.8361875" width="4" height="4" style="fill: #E0E0E0;" /><rect x="664.7741875" y="127.54771875" width="4" height="4" style="fill: #E0E0E0;" /><rect x="671.8515625" y="176.643234375" width="4" height="4" style="fill: #C0C0C0;" /><rect x="668.224859375" y="179.28453125" width="4" height="4" style="fill: #C0C0C0;" /><rect x="749.682078125" y="168.5209375" width="4" height="4" style="fill: #C0C0C0;" /><rect x="746.92803125" y="166.800609375" width="4" height="4" style="fill: #C0C0C0;" /><rect x="647.176953125" y="135.42125" width="4" height="4" style="fill: #C0C0C0;" /><rect x="648.710015625" y="132.34" width="4" height="4" style="fill: #C0C0C0;" /><rect x="566.152453125" y="126.329875" width="4" height="4" style="fill: #C0C0C0;" /><rect x="565.940015625" y="129.7145" width="4" height="4" style="fill: #C0C0C0;" /><rect x="709.3719375" y="153.8145625" width="4" height="4" style="fill: #C0C0C0;" /><rect x="706.397796875" y="156.1666875" width="4" height="4" style="fill: #C0C0C0;" /><rect x="605.7692890625" y="154.5486875" width="4" height="4" style="fill: #808B96;" /><rect x="600.1254140625" y="155.46353125" width="4" height="4" style="fill: #808B96;" /><rect x="596.3168828125" y="148.75275" width="4" height="4" style="fill: #808B96;" /><rect x="592.926796875" y="152.598625" width="4" height="4" style="fill: #808B96;" /><rect x="526.92273242188" y="104.97646875" width="4" height="4" style="fill: #800000;" /><rect x="526.01973242188" y="107.08440625" width="4" height="4" style="fill: #800000;" /><rect x="528.54172070312" y="107.524375" width="4" height="4" style="fill: #800000;" /><rect x="526.99754492188" y="104.61665625" width="4" height="4" style="fill: #800000;" /><rect x="528.24693945312" y="105.0881875" width="4" height="4" style="fill: #800000;" /><rect x="528.22240625" y="106.3925" width="4" height="4" style="fill: #800000;" /><rect x="527.3029375" y="108.14378125" width="4" height="4" style="fill: #800000;" /><rect x="525.85216015625" y="109.038125" width="4" height="4" style="fill: #800000;" /><rect x="524.2248203125" y="106.71290625" width="4" height="4" style="fill: #800000;" /><rect x="524.0416171875" y="105.50159375" width="4" height="4" style="fill: #800000;" /><rect x="525.12317382812" y="104.90609375" width="4" height="4" style="fill: #800000;" /><rect x="524.26178710938" y="106.73978125" width="4" height="4" style="fill: #800000;" /><rect x="526.41466601562" y="108.21875" width="4" height="4" style="fill: #800000;" /><rect x="527.24457226562" y="109.81028125" width="4" height="4" style="fill: #800000;" /><rect x="528.40920117188" y="109.83525" width="4" height="4" style="fill: #800000;" /><rect x="529.72541992188" y="108.856375" width="4" height="4" style="fill: #800000;" /><rect x="529.60152734375" y="107.71371875" width="4" height="4" style="fill: #800000;" /><rect x="528.90751757812" y="106.7235" width="4" height="4" style="fill: #800000;" /><circle cx="446.79682421875" cy="336.76044921875" r="2.5" style="fill: #000000;" /><rect x="487.52142675781" y="271.8076484375" width="4" height="4" style="fill: #808B96;" /><rect x="353.952328125" y="396.5179855957" width="4" height="4" style="fill: #C0C0C0;" /><rect x="353.261984375" y="391.50754589844" width="4" height="4" style="fill: #C0C0C0;" /><rect x="439.8014765625" y="253.011390625" width="4" height="4" style="fill: #C0C0C0;" /><rect x="429.849359375" y="254.263390625" width="4" height="4" style="fill: #C0C0C0;" /><circle cx="413.0252109375" cy="212.175828125" r="2.5" style="fill: #008000;" /><circle cx="441.416078125" cy="255.33728125" r="2.5" style="fill: #008000;" /><circle cx="461.6497890625" cy="233.47865625" r="2.5" style="fill: #33CC00;" /><circle cx="503.09631005859" cy="227.534390625" r="2.5" style="fill: #33CC00;" /><circle cx="501.45862329102" cy="269.2580078125" r="2.5" style="fill: #33CC00;" /><circle cx="351.431140625" cy="187.388625" r="2.5" style="fill: #33FF00;" /><circle cx="328.223296875" cy="232.761875" r="2.5" style="fill: #33CC00;" /><circle cx="409.8441875" cy="377.39403710938" r="2.5" style="fill: #FF0000;" /><circle cx="441.66508984375" cy="408.11307666016" r="2.5" style="fill: #6600CC;" /><circle cx="447.15431640625" cy="402.99317651367" r="2.5" style="fill: #CC6600;" /><circle cx="528.8748125" cy="360.37469140625" r="2.5" style="fill: #FF0000;" /><circle cx="538.17145703125" cy="329.810109375" r="2.5" style="fill: #008000;" /><circle cx="565.4735859375" cy="296.7663515625" r="2.5" style="fill: #6600CC;" /><rect x="571.195515625" y="297.2738125" width="4" height="4" style="fill: #66FFFF;" /><rect x="611.283921875" y="295.556015625" width="4" height="4" style="fill: #008000;" /><circle cx="620.267953125" cy="288.59209375" r="2.5" style="fill: #FF0000;" /><rect x="623.177359375" y="272.9369609375" width="4" height="4" style="fill: #800080;" /><rect x="608.9508046875" y="275.922765625" width="4" height="4" style="fill: #00CCFF;" /><circle cx="688.563421875" cy="332.79859375" r="2.5" style="fill: #FF0000;" /><circle cx="694.2459375" cy="331.7752109375" r="2.5" style="fill: #FF0000;" /><circle cx="679.15246875" cy="327.5257421875" r="2.5" style="fill: #800000;" /><circle cx="694.64659375" cy="454.74412890625" r="2.5" style="fill: #00FF00;" /><circle cx="682.281109375" cy="422.81496875" r="2.5" style="fill: #008000;" /><circle cx="595.155703125" cy="465.44867578125" r="2.5" style="fill: #FF0000;" /><circle cx="592.101046875" cy="471.1303671875" r="2.5" style="fill: #66FFFF;" /><circle cx="616.282734375" cy="388.28437402344" r="2.5" style="fill: #008000;" /><circle cx="646.774671875" cy="383.48218945312" r="2.5" style="fill: #660066;" /><circle cx="482.29923828125" cy="369.83808203125" r="2.5" style="fill: #660066;" /><circle cx="445.02384375" cy="370.42102539062" r="2.5" style="fill: #99FF99;" /><circle cx="308.41271875" cy="454.360296875" r="2.5" style="fill: #FFFF99;" /><circle cx="375.408296875" cy="357.93508984375" r="2.5" style="fill: #008000;" /><circle cx="387.9638359375" cy="311.0367421875" r="2.5" style="fill: #FF0000;" /><circle cx="362.101375" cy="263.846234375" r="2.5" style="fill: #33CC00;" /><circle cx="456.688921875" cy="193.47346875" r="2.5" style="fill: #008000;" /><circle cx="486.60579589844" cy="160.0784375" r="2.5" style="fill: #00FF00;" /><rect x="445.074703125" y="331.7680625" width="4" height="4" style="fill: #00FF00;" /><circle cx="610.0067421875" cy="297.2586328125" r="2.5" style="fill: #00FF00;" /><rect x="642.265078125" y="310.6197890625" width="4" height="4" style="fill: #33CC00;" /><circle cx="536.63456640625" cy="351.26916796875" r="2.5" style="fill: #FF9966;" /><rect x="526.14897851562" y="368.49266601562" width="4" height="4" style="fill: #800080;" /><circle cx="420.1153046875" cy="253.918078125" r="2.5" style="fill: #00FF00;" /><circle cx="434.5516875" cy="253.542859375" r="2.5" style="fill: #FF9966;" /><circle cx="643.318609375" cy="427.59197265625" r="2.5" style="fill: #33CC00;" /><circle cx="666.71009375" cy="438.99541796875" r="2.5" style="fill: #008000;" /><circle cx="667.74615625" cy="439.65334375" r="2.5" style="fill: #00FF00;" /><circle cx="563.47003515625" cy="294.1291875" r="2.5" style="fill: #C0C0C0;" /></svg>